<svg id="Layer_1" data-name="Layer 1" xmlns="http://www.w3.org/2000/svg" viewBox="0 0 341.67 289.33"><defs><style>.cls-1{fill:#002a36;}</style></defs><title>Untitled-1-01</title><path class="cls-1" d="M321.7,174.51V158.79s-32.08-.65-58.93-7.85l-104.09,19L160,212.48Z"/><path class="cls-1" d="M142.31,280.57l8.51,3.93,7.86-3.93L155.4,154.86s2-26.27-22.26-9.86c0,0-6.54,19,12.77,18.38Z"/><path class="cls-1" d="M139.69,255.69,82.08,241.94s-3.28,15.71,0,13.75,57.61,13.09,57.61,13.09Z"/><path class="cls-1" d="M87.31,258.67s-5.74,1.38-8.21-2.26c-1.28-1.87,1.52-17.74,1.52-17.74l5.71,2L84,157.48s55.65,9.17,43.86,2.62,4.17-20.49,4.17-20.49l-51.45-4.19c-11.28-10.93-18.19,0-18.19,0-5.89,17.88,12.7,15.52,12.7,15.52L69.64,261.58l6.4,7.2,12.13-3.61Z"/><path class="cls-1" d="M87.31,185s25.54,14.4,52.38,8.51v18.56l-52.38-9.39Z"/><polygon class="cls-1" points="249.03 195.46 262.12 192.18 262.12 201.5 255.57 200.63 255.57 210.38 261.93 211.12 262.12 221.64 252.95 225.57 249.03 220.34 249.03 195.46"/><path class="cls-1" d="M330.86,109.69s-13.74-3.93-15.05,7.2l-51.07-8.51s-1.31-11.78-24.55,2c0,0-11.46,2-4.91-9.82,0,0-16.31,2.24-60.28-36-4.53-4.6-27.95-4.44-39.89,26.19,0,0-9.82,26.85-35.36,26.85,0,0,13,8.16-3.07,13h23.37s15.06-5.82,19.64-22.19c0,0,11.78-.65,13.75-19.64,0,0,23.57-25.53,41.9,11.13,0,0,2,4.58,7.2,2.62,0,0,13.1,15.06,22.26,11.13,0,0-5.89,15.71,22.92,9.16L250.33,145h7.86l.44-23.94,55.87,3.69v28.8h9.82c.52,0,.63,12.81.56,28.16h-6.67v27.17l-60.89-5.57v5.57l61.55,8.18,1.3,16.37h10.69l-3.27-102.86S342,122.13,330.86,109.69Z"/><path class="cls-1" d="M65.05,202.66S21.19,84.16,5.47,75.64C5.47,75.64,34.94,82.85,65.05,202.66Z"/><path class="cls-1" d="M61.28,119.51s-.16-140.76,78.41-108C139.69,11.48,75.84-2.92,61.28,119.51Z"/></svg>