<svg width="61" height="55" viewBox="0 0 61 55" fill="none" xmlns="http://www.w3.org/2000/svg">
<path d="M59.7308 33.9208C59.9465 33.5417 60.0662 33.0931 60.0662 32.5986V29.4889C60.0662 28.0458 58.9932 27 57.5152 27H56.0343C55.7254 27 55.447 27.0486 55.1979 27.1375C54.6175 26.9347 53.8869 26.7903 52.9753 26.7903C52.921 26.7903 52.8653 26.7917 52.8125 26.7917C53.0157 25.8278 53.0115 24.7597 52.4645 23.8319C52.1124 23.2347 51.1813 21.6972 49.3373 21.6972L47.2455 21.7208C46.7194 21.7208 46.1182 21.5736 45.716 21.7903C45.3778 15.4389 44.2658 10.8833 42.3633 6.97639C40.2019 2.54306 37.0593 0 33.7317 0C30.6545 0.00972222 28.7089 1.96806 28.077 4.22778C27.3561 3.77917 26.5475 3.50139 25.6317 3.50139C24.4989 3.50278 21.6082 4.06111 18.8539 9.01111C16.5729 13.1097 15.6933 17.9556 14.7163 26.1528L14.6954 26.3681L14.5674 27.2528L13.6795 24.875C13.5667 24.4972 13.287 23.8014 12.6482 23.1819C11.7394 22.3028 10.4158 22.2083 9.88834 22.2083H5.90796C4.5371 22.2083 3.42231 23.3139 3.42231 24.6722C3.42231 24.7417 3.41953 25.1417 3.41674 25.5611C3.41396 26.0319 3.41118 26.5236 3.41118 26.6153C3.41118 27.375 3.72432 28.0361 4.23926 28.4875C3.84679 29.5083 3.25669 31.0472 2.36319 33.3903C2.21428 33.7792 2.06954 34.1597 1.94289 34.4917C1.44882 34.5875 1.00346 34.8306 0.656919 35.1972C0.222695 35.6583 -0.0152927 36.2792 -0.00137526 36.9153V38.8514C-0.002767 39.1681 0.0682119 39.975 0.732073 40.6403C1.19691 41.1056 1.8232 41.3611 2.4968 41.3611H8.16676C8.77773 41.3611 9.31356 41.1833 9.7283 40.8722C10.0567 41.1194 10.4715 41.2875 10.9683 41.3417C9.86608 42.3944 9.2217 43.7569 9.15072 45.3542C9.07696 47.0542 9.71438 48.6597 10.9976 49.9972C12.6537 51.7236 15.4052 53.0431 19.1754 53.9181C22.1858 54.6167 25.7737 55.0014 29.2809 55.0014H29.2837H29.4103C33.669 54.9889 39.8345 54.5181 45.0271 52.3528C49.3582 50.5458 51.8104 47.9958 51.9329 45.1708C51.9705 44.3028 51.8563 42.7306 50.7986 41.3236H50.832C51.2106 41.3236 51.5641 41.2458 51.8772 41.1042C52.2057 41.2236 52.5606 41.3208 52.9349 41.3792C53.3775 41.4486 53.866 41.4847 54.3476 41.4847C55.2257 41.4847 56.4894 41.3639 57.5249 40.7903C58.3307 40.3431 60.0078 39.4139 60.2959 37.0361C60.435 35.8819 60.2277 34.8097 59.7308 33.9208Z" fill="#D71920"/>
<path d="M43.0453 26.1139C43.0439 26.275 43.0467 26.0097 43.0453 26.1139V26.1139Z" fill="white"/>
<path d="M58.2078 32.4764V29.3625C58.2078 29.0792 58.0519 29.0278 57.8139 29.0278H56.3317C56.1661 29.0278 56.1424 29.1264 56.1424 29.3222V29.8125C56.1424 29.9681 56.0408 29.9389 55.8557 29.7556C55.6372 29.5375 55.0374 28.8472 53.3729 28.8472C51.5817 28.8472 50.9443 29.4431 50.446 30.0014C49.9478 30.5583 49.2338 31.8861 49.8893 33.2375C50.5449 34.5889 52.5197 34.8667 53.2198 35.0139C54.0493 35.1875 55.2517 35.6236 54.8899 36.2889C54.5294 36.9542 53.3937 36.7695 52.7382 36.5611C52.0827 36.3528 51.7418 35.7611 51.6986 35.6097C51.6471 35.4278 51.4551 35.2695 51.2031 35.2695H49.5233C49.2241 35.2695 49.1545 35.4278 49.1545 35.6403V38.7056C49.1545 38.9097 49.1949 39.0569 49.4245 39.0569H51.1196C51.3437 39.0569 51.3813 38.9583 51.3813 38.8028C51.3813 38.6472 51.3729 38.4681 51.3729 38.3042C51.3729 38.1403 51.4662 38.0792 51.6193 38.2306C51.771 38.382 52.6311 38.8847 53.5886 39.0333C54.5475 39.1833 55.8084 39.2056 56.6393 38.7444C57.4688 38.2847 58.1326 37.7375 58.2746 36.625C58.4291 35.4083 57.9907 34.3347 56.5488 33.8347C55.107 33.3361 53.725 33.0486 53.2337 32.7695C52.6728 32.4514 52.5712 31.5528 53.3617 31.3347C54.0715 31.1375 54.6811 31.3528 55.1098 31.6C55.4688 31.807 55.6512 32.2722 55.6846 32.4681C55.718 32.6639 55.7416 32.8764 56.0367 32.8764H57.8042C58.0937 32.8764 58.2078 32.7625 58.2078 32.4764ZM50.2136 27.7583C50.2136 27.7583 52.0911 23.382 49.2965 23.382H46.8804C46.4183 23.382 46.4448 23.8347 46.4448 23.8347C46.4448 23.8347 46.4406 25.7 46.4406 25.9472C46.4406 26.1722 46.3752 26.4445 46.9082 26.4445H48.7565C50.0661 26.4445 50.2136 27.7583 50.2136 27.7583ZM48.84 28.9597H43.9494C43.671 28.9597 43.6432 29.0681 43.6432 29.3292V31.2583C43.6432 31.4681 43.7086 31.5639 43.9605 31.5639H44.3321C44.4963 31.5639 44.6926 31.575 44.5938 31.8361C44.4949 32.0972 43.2605 36.0097 43.1951 36.2167C43.1297 36.4236 42.6425 36.4014 42.5549 36.1833C42.4672 35.9653 41.4512 32.0097 41.3969 31.8125C41.3427 31.6167 41.3635 31.6056 41.55 31.6056C41.7365 31.6056 42.0622 31.65 42.0622 31.3653V29.2736C42.0622 29.0347 42.0371 28.9583 41.756 28.9583H37.3734C37.0102 28.9583 37.0463 29.1528 37.0463 29.3708V31.2889C37.0463 31.5347 37.134 31.6042 37.3525 31.6042H37.7895C37.9565 31.6042 38.0957 31.5722 38.1931 31.8667C38.292 32.1597 40.2237 37.7403 40.4422 38.4375C40.6607 39.1347 41.3552 39.0695 41.7797 39.0695C42.1526 39.0695 42.3405 39.0639 42.2751 39.2903C42.2097 39.5167 41.9147 40.5958 41.5431 40.8792C41.1715 41.1625 40.5605 41.2056 40.1458 41.0306C39.731 40.8556 39.2648 40.4306 39.1771 40.3611C39.0894 40.2903 38.9697 40.3014 38.8598 40.4431C38.7512 40.5847 37.9454 41.5972 37.713 41.925C37.4806 42.2528 37.5376 42.2736 37.7464 42.4708C37.9538 42.6667 39.0588 43.7556 41.1882 43.7556C43.4595 43.7556 44.2904 41.8931 44.6828 40.8625C45.0753 39.832 47.8212 32.2917 47.9186 31.9431C48.0174 31.5945 48.126 31.5833 48.3125 31.5833H48.8803C49.1002 31.5833 49.1531 31.4861 49.1531 31.2458V29.2736C49.1573 29.0347 49.0877 28.9597 48.84 28.9597ZM43.3482 26.1264C43.3273 18.5542 42.2111 12.8042 40.1193 8.50695C38.3671 4.90834 35.9747 2.84445 33.5572 2.84445C30.7974 2.85279 29.9582 5.10417 29.8997 6.29584C29.8524 7.32917 30.4356 8.47917 31.0006 9.59306C31.4376 10.4542 31.8496 11.2667 31.8245 11.7889C31.819 11.9403 31.7076 12.3556 31.407 12.357C31.1231 12.357 30.3896 11.1708 29.9039 10.3847C28.7738 8.55834 27.3668 6.28473 25.5951 6.28473C25.0217 6.28473 22.9828 6.59723 20.7978 10.5945C18.9676 13.9417 17.8834 18.6611 17.1458 26.1083C17.157 26.225 17.2335 26.4458 17.4381 26.4458H19.6593C19.9237 26.4458 20.0212 26.257 20.0337 26.1542C20.5417 21.8611 20.82 19.175 21.4073 16.8292C22.806 11.2347 24.8074 9.69167 25.3543 9.69029C26.0321 9.69029 26.6946 10.7861 27.396 11.9458C27.4962 12.1111 27.5978 12.2792 27.7008 12.4472C28.6124 13.9264 29.7286 15.507 31.471 15.507C33.2525 15.5028 34.5816 13.7028 34.6609 12.0903C34.7374 10.3417 33.9762 9.04167 33.4195 8.09167C33.1008 7.54862 32.8266 7.07917 32.8419 6.75001C32.8656 6.22917 33.2274 6.11945 33.5266 6.11945C34.5496 6.11945 36.267 7.18056 37.7408 10.1722C40.0455 14.85 40.5354 21.1931 40.5396 26.1375C40.5535 26.2445 40.651 26.4472 40.9154 26.4472H43.028C43.2563 26.4458 43.337 26.2417 43.3482 26.1264ZM16.578 38.8125V36.8514C16.578 36.7042 16.436 36.4861 16.1925 36.4861C16.1034 36.4861 15.6845 36.4833 15.6079 36.4833C15.1932 36.4833 15.0944 36.1028 15.0944 36.1028L11.1043 25.4056C11.1043 25.4056 11.0096 24.9653 10.6269 24.5958C10.2442 24.225 9.36877 24.2292 9.36877 24.2292H5.89637C5.70709 24.2292 5.56931 24.3931 5.56931 24.5389C5.56931 24.6847 5.55817 26.3111 5.55817 26.4861C5.55817 26.6611 5.64864 26.8347 5.96735 26.8347H6.82466C7.10579 26.8347 7.09883 27.0403 6.97914 27.2583C6.85945 27.4764 3.55963 36.1708 3.51649 36.2583C3.39123 36.5222 3.21726 36.4847 3.21726 36.4847H2.56593C2.27645 36.4847 2.29315 36.7681 2.29315 36.7681V38.7458C2.29315 38.7458 2.29176 39.0945 2.63134 39.0945H7.54697C7.86429 39.0945 7.87125 39.0111 7.87125 38.7889V36.7458C7.87125 36.5167 7.74321 36.4847 7.53584 36.4847H6.65765C6.396 36.4847 6.32224 36.3153 6.36956 36.157C6.38904 36.0931 6.67296 35.2875 6.76064 35.0583C6.84832 34.8292 6.89146 34.8181 7.14337 34.8181L10.9846 34.8111C11.3882 34.8111 11.4105 34.9306 11.4647 35.0722C11.519 35.2139 11.7292 35.8014 11.7807 35.9445C11.9268 36.3611 11.7918 36.4847 11.6164 36.4847H10.7535C10.6227 36.4847 10.4376 36.5528 10.4376 36.7889V38.8542C10.4376 39.0181 10.5156 39.0945 10.787 39.0945H16.333C16.5056 39.0931 16.578 38.9195 16.578 38.8125ZM10.3193 32.5764L8.09393 32.5833C7.76687 32.5833 7.80445 32.3889 7.85872 32.2583C7.913 32.1278 8.86495 29.2639 8.93176 29.0792C8.99717 28.8945 9.18227 28.7736 9.29083 29.0361C9.39938 29.2972 10.4154 32.0861 10.4822 32.2389C10.5476 32.3903 10.5378 32.5764 10.3193 32.5764ZM25.3877 24.5389V26.632C25.3877 26.7778 25.4629 26.8445 25.6633 26.8445H26.0599C26.3383 26.8445 26.355 26.9264 26.355 27.2208V36.0806C26.355 36.4736 26.3216 36.4833 26.0432 36.4833H25.4698C25.1664 36.4833 25.1261 36.5861 25.1261 36.8486V38.7444C25.1261 39.0208 25.2402 39.0931 25.5199 39.0931H28.9102C29.2067 39.0931 29.2373 38.9736 29.2373 38.7778V38.1722C29.2373 37.9764 29.4781 38.0903 29.6061 38.232C29.7341 38.3736 30.2254 39.0056 31.8858 39.1514C33.2441 39.2695 34.7472 38.9083 35.6309 37.7639C36.3087 36.8861 36.832 36.0417 36.832 33.7972C36.832 31.5528 35.784 30.1361 34.7249 29.4931C33.6658 28.85 32.2546 28.7195 31.3541 28.9597C30.5455 29.1764 29.8274 29.75 29.7244 29.8736C29.6242 29.9958 29.4293 30.0917 29.4293 29.8847V24.5778C29.4293 24.3056 29.3096 24.2292 29.1399 24.2292H25.6647C25.4072 24.2292 25.3877 24.3264 25.3877 24.5389ZM29.5588 34.0681C29.5588 32.7167 30.16 31.607 31.5629 31.607C32.9658 31.607 33.567 32.75 33.567 34.1458C33.567 35.5431 32.693 36.4347 31.503 36.4347C30.3131 36.4347 29.5588 35.4195 29.5588 34.0681ZM18.0839 36.2417C18.0839 36.2417 18.1075 36.4833 17.9461 36.4833H17.3894C17.1444 36.4833 17.1472 36.6139 17.1472 36.7208V38.8708C17.1472 38.8708 17.118 39.0945 17.4297 39.0945H22.2006C22.3537 39.0945 22.4957 39.007 22.4957 38.7792V36.7403C22.4957 36.5222 22.4845 36.457 22.2118 36.457H21.7748C21.5674 36.457 21.4366 36.4681 21.4366 36.2611V34.5945C21.4366 33.8542 21.6926 33.4014 22.0809 33.0139C22.4692 32.6264 23.2152 32.1931 23.9668 32.1292C24.6765 32.0695 24.9952 32.1458 25.3084 32.175C25.5046 32.1931 25.6146 32.1014 25.6146 31.9458V29.1778C25.6146 29.0139 25.5714 28.8542 25.2318 28.8181C24.8923 28.782 23.5325 28.9611 22.4957 29.6681C21.598 30.282 21.2069 31.3028 21.1304 31.4111C21.0538 31.5208 20.923 31.5639 20.923 31.3778V29.3181C20.923 29.1111 20.852 28.9597 20.6071 28.9597H17.4283C17.2321 28.9597 17.1444 28.9653 17.1444 29.2264V31.3445C17.1444 31.5625 17.3629 31.5625 17.3629 31.5625C17.3629 31.5625 17.6148 31.5736 17.8111 31.5736C18.0073 31.5736 18.0839 31.6278 18.0839 31.857V36.2417ZM11.4272 45.8639C11.3798 46.9625 11.7932 47.9778 12.6588 48.8792C13.9824 50.2583 16.4054 51.3875 19.6649 52.1445C22.4776 52.7972 25.8442 53.157 29.1426 53.157H29.2637C33.2678 53.1445 39.0477 52.7111 43.8422 50.7097C47.2562 49.2861 49.0947 47.5264 49.3452 45.4972C49.5247 44.0444 49.1392 42.7556 47.3578 41.9083C47.3578 41.9083 47.2102 41.8931 47.1281 42.0389C46.7774 42.6556 46.4336 43.2139 45.9326 43.8639C45.7461 44.1056 45.966 44.2778 45.966 44.2778C46.6048 44.7722 46.6828 45.4417 46.1511 46.0778C45.6793 46.6403 45.0029 47.4264 42.186 48.5417C39.8632 49.4611 35.7659 50.5625 29.4446 50.5792H29.3208C21.964 50.5792 16.4221 48.8111 14.7506 47.0653C14.4013 46.7 14.2315 46.3458 14.2454 46.0125C14.29 44.9667 15.7457 44.3861 18.3455 44.3764H18.3914C19.0929 44.3764 19.7971 44.4236 20.4944 44.507C21.0163 44.5708 21.5187 44.65 22.0016 44.7417C23.1164 44.9542 24.1992 45.2458 25.2165 45.5736V45.5708C26.6848 46.0514 27.8288 46.5625 28.5971 46.8861C29.0383 47.0722 29.3291 47.1945 29.4906 47.2431C29.7453 47.3195 29.9874 47.3514 30.2087 47.3375L30.2212 47.3361C30.8406 47.2945 31.3221 46.8806 31.4446 46.2806C31.5531 45.7597 31.3931 45.1945 30.7919 44.9153C29.2067 44.1806 26.38 43 23.044 42.2389C22.1088 42.0195 21.1749 41.8445 20.2633 41.7333C20.2591 41.7333 20.2536 41.732 20.2494 41.732C19.548 41.6472 18.8591 41.6 18.1966 41.6H18.159C14.1216 41.6125 11.5427 43.2458 11.4272 45.8639Z" fill="white"/>
</svg>
